<?xml version="1.0" encoding="utf-8"?>
<!-- Generator: Adobe Illustrator 19.1.0, SVG Export Plug-In . SVG Version: 6.00 Build 0)  -->
<svg version="1.1" id="Livello_1" xmlns="http://www.w3.org/2000/svg" xmlns:xlink="http://www.w3.org/1999/xlink" x="0px" y="0px"
	 viewBox="-482.2 1509.3 112.2 158.2" style="enable-background:new -482.2 1509.3 112.2 158.2;" xml:space="preserve">
<style type="text/css">
	.st0{fill:#FFFFFF;enable-background:new    ;}
</style>
<path class="st0" d="M986.1,85.9"/>
<path class="st0" d="M-410.2,1620.9c9.8-14,16.3-29.7,22.2-45.6c4.1-11.2,6.6-22.7,6.2-34.7c-0.2-6.2-1-12.3-4.5-17.7
	c-2.8-4.2-6.8-5.8-11.7-4.7c-4,0.8-7,5.4-7.4,10.2c-0.4,4.6,1.6,8.1,4.7,11.1c1.5,1.4,3,2.8,3,5c0,1.2-0.5,2.3-1.8,2.7
	s-1.8-0.5-2-1.6c-0.6-3.4-3.4-4.5-6-5.4c-6.2-2.2-12.4-3.1-18.6-3.1c-6.2-0.1-12.4,0.9-18.6,3.1c-2.6,0.9-5.4,2-6,5.4
	c-0.2,1.1-0.7,2-2,1.6s-1.8-1.5-1.8-2.7c0-2.2,1.5-3.6,3-5c3.1-3,5.1-6.5,4.7-11.1c-0.4-4.8-3.4-9.4-7.4-10.2
	c-4.9-1.1-8.9,0.5-11.7,4.7c-3.5,5.4-4.3,11.5-4.5,17.7c-0.4,12,2.1,23.5,6.2,34.7c5.9,15.9,12.4,31.6,22.2,45.6
	c2.4,3.4,3,7.6,5.6,11c1.7,2.2,0.3,4.5-2.3,5.5c-2.3,1-4.5,2.2-6.4,3.8c-6.7,5.6-6,11,1.9,14.9c5.3,2.8,11,3.1,17.1,2.9
	c6.1,0.2,11.9-0.1,17.1-2.9c7.9-3.9,8.6-9.3,1.9-14.9c-1.9-1.6-4.1-2.8-6.4-3.8c-2.6-1-4-3.3-2.3-5.5
	C-413.2,1628.5-412.6,1624.3-410.2,1620.9z M-399.2,1551.7c5.5-3.3,6.3-8.3,2.9-13.7c-1.5-2.4-3.2-4.6-4.8-7c-1.3-1.9-2.2-4-0.4-6
	s4.2-2.7,6.8-1.9c4.4,1.4,6.7,4.8,8,8.9c2.7,8.2,2.1,16.5,0.6,24.7c-2.3,12.8-5.9,25.2-12.8,36.6c1.3-8.4,2.6-16.7,4-24.9
	c0.7-4.5,1.2-8.4-4.3-10.7C-402.2,1556.4-403.3,1554.1-399.2,1551.7z M-453.1,1557.7c-5.5,2.3-5,6.2-4.3,10.7
	c1.4,8.2,2.7,16.5,4,24.9c-6.9-11.4-10.5-23.8-12.8-36.6c-1.5-8.2-2.1-16.5,0.6-24.7c1.3-4.1,3.6-7.5,8-8.9c2.6-0.8,5-0.1,6.8,1.9
	s0.9,4.1-0.4,6c-1.6,2.4-3.3,4.6-4.8,7c-3.4,5.4-2.6,10.4,2.9,13.7C-449,1554.1-450.1,1556.4-453.1,1557.7z"/>
</svg>
