<?xml version="1.0" encoding="utf-8"?>
<!-- Generator: Adobe Illustrator 19.1.0, SVG Export Plug-In . SVG Version: 6.00 Build 0)  -->
<svg version="1.1" id="Livello_1" xmlns="http://www.w3.org/2000/svg" xmlns:xlink="http://www.w3.org/1999/xlink" x="0px" y="0px"
	 viewBox="-129 1427 60 148" style="enable-background:new -129 1427 60 148;" xml:space="preserve">
<style type="text/css">
	.st0{fill:none;enable-background:new    ;}
	.st1{fill:#FFFFFF;}
</style>
<path class="st0" d="M-129,1427"/>
<path class="st1" d="M-77.5,1531.8l0.2,40.4l-1.2,1h-22.1h-19.1l-1.2-1l0.2-40.4c0,0,1.9-2.6,4.4-6.9c3.8-0.3,7.9-1.1,12.3-3.8
	c4.5-3,2.7-5.6,1.9-8c-4.8-2.7-0.9-4.9-1.9-6.4c-21.3-5-9.6-19.1-8.8-21c-0.9-1.6-0.4-3.8,0.5-8.8c-1.6-30.5-12-38.2-14-41.6
	c4.9-7.4,25.8-6.4,25.8-6.4s23.9-1,28.8,6.4c-2,3.4-12.4,11.1-14,41.6c0.9,5,1.4,7.1,0.5,8.8c0.9,1.9,12.5,16-8.8,21
	c-1,1.5,2.9,3.6-1.9,6.4c-0.9,2.4-2.6,5,1.9,8c4.4,2.6,8.5,3.5,12.2,3.8C-79.4,1529.2-77.5,1531.8-77.5,1531.8z"/>
</svg>
