<?xml version="1.0" encoding="utf-8"?>
<!-- Generator: Adobe Illustrator 19.1.0, SVG Export Plug-In . SVG Version: 6.00 Build 0)  -->
<svg version="1.1" id="Livello_1" xmlns="http://www.w3.org/2000/svg" xmlns:xlink="http://www.w3.org/1999/xlink" x="0px" y="0px"
	 viewBox="-133 1427 52 148" style="enable-background:new -133 1427 52 148;" xml:space="preserve">
<style type="text/css">
	.st0{fill:none;enable-background:new    ;}
	.st1{fill:#FFFFFF;}
</style>
<path class="st0" d="M-133,1427"/>
<path class="st1" d="M-81.8,1474.4c2-6.3-1.8-9.3-4-11c4.9-16.8-0.4-25.9-6.9-30.8c-8.4-6.3-20.1-6.3-28.5,0
	c-6.5,4.9-11.8,14-6.9,30.8c-2.2,1.7-6,4.7-4,11c4.2,2.3,5.5,0.7,5.7,8.5c0.2,8.5,5.7,59.2,5.7,59.2s-4,2.7-4.7,7.2
	s-2.8,22.7-2.8,22.7l1.7,2.2h39.3l1.7-2.2c0,0-2.2-18.2-2.8-22.7c-0.7-4.5-4.7-7.2-4.7-7.2s5.5-50.7,5.7-59.2
	C-87.3,1475.1-86,1476.8-81.8,1474.4z M-101,1540.6h-12c0,0-5.7-55.7-6-62.5c1.5,0.8,12,0.8,12,0.8s10.5,0,12-0.8
	C-95.3,1484.9-101,1540.6-101,1540.6z"/>
</svg>
