<?xml version="1.0" encoding="utf-8"?>
<!-- Generator: Adobe Illustrator 19.1.0, SVG Export Plug-In . SVG Version: 6.00 Build 0)  -->
<svg version="1.1" id="Livello_1" xmlns="http://www.w3.org/2000/svg" xmlns:xlink="http://www.w3.org/1999/xlink" x="0px" y="0px"
	 viewBox="-129 1427 61 148" style="enable-background:new -129 1427 61 148;" xml:space="preserve">
<style type="text/css">
	.st0{fill:none;enable-background:new    ;}
	.st1{fill:#FFFFFF;}
</style>
<path class="st0" d="M-129,1427"/>
<path class="st1" d="M-71.6,1445.4c0,0,2.2-4.4-3.6-3.9c-2.9-0.1-5.3-0.9-5.3-0.9s-4.1-13.4-18.8-12.8c0,0-11-1.6-16.7,9.2
	c-2.3,5-2.7,12.2-1,15.1c-2.3-3.7-4.1-10.6-6.6-6.4c-0.7,1.6,0.9,4.3,0.9,4.3s8.2,10.6,13.3,34.8c0.9,8.4,8.7,29.2-16,76.5
	c-1,2.5-2.4,13.6,26.1,12.9c4.3,0,27.4-1.4,26.6-11.5c-2.2-5.7-11.4-26.3-12.4-29s-10.2-34.9-1.1-59.9
	C-81.9,1462.7-71.6,1445.4-71.6,1445.4z M-104.2,1540.6c-4.7,0.7-7.1,0.9-7.1,0.9s17.7-53.2-2.9-83.3c0.6,0.7,5.5,6.8,11.5,8
	C-102,1471.3-95.7,1510.9-104.2,1540.6z"/>
</svg>
