<?xml version="1.0" encoding="utf-8"?>
<!-- Generator: Adobe Illustrator 19.1.0, SVG Export Plug-In . SVG Version: 6.00 Build 0)  -->
<svg version="1.1" id="Livello_1" xmlns="http://www.w3.org/2000/svg" xmlns:xlink="http://www.w3.org/1999/xlink" x="0px" y="0px"
	 viewBox="-113.6 1442 101.1 118" style="enable-background:new -113.6 1442 101.1 118;" xml:space="preserve">
<style type="text/css">
	.st0{fill:none;enable-background:new    ;}
	.st1{fill:#FFFFFF;}
	.st2{fill:none;}
</style>
<path class="st0" d="M-111,1445"/>
<path class="st1" d="M-110.8,1445v62.9c0,0,2.5,32.4,47.6,49c0.1,0,0.1,0.1,0.2,0.1s0.1,0,0.2-0.1c45.1-16.5,47.6-49,47.6-49V1445
	H-110.8z M-48.5,1545.5l-14.5,7l-14.5-7v-96.2h29.1L-48.5,1545.5L-48.5,1545.5z"/>
<path class="st2" d="M-62.9,1500.9v0.2c-0.1,0-0.1-0.1-0.2-0.1C-63,1501-63,1501-62.9,1500.9z"/>
<path class="st2" d="M-62.9,1501c-0.1,0-0.1,0.1-0.2,0.1v-0.2C-63,1501-63,1501-62.9,1501z"/>
</svg>
