<?xml version="1.0" encoding="utf-8"?>
<!-- Generator: Adobe Illustrator 19.1.0, SVG Export Plug-In . SVG Version: 6.00 Build 0)  -->
<svg version="1.1" id="Livello_1" xmlns="http://www.w3.org/2000/svg" xmlns:xlink="http://www.w3.org/1999/xlink" x="0px" y="0px"
	 viewBox="-135.7 1412.8 70.3 176.4" style="enable-background:new -135.7 1412.8 70.3 176.4;" xml:space="preserve">
<style type="text/css">
	.st0{fill:#FFFFFF;}
	.st1{enable-background:new    ;}
</style>
<g>
	<g>
		<path class="st0" d="M-88,1575c-8.3,0-16.7,0-25,0c-2.7-0.8-5.5-1.5-8.1-2.5c-5.3-2.1-6.6-5.4-3-9.6c4.4-5,4.3-10.6,3.5-16.4
			c-0.5-3.7-0.1-7,2.5-9.7c1.2-1.3,1.9-2.7,2.2-4.4c2-10.1,4-20.3,6-30.4c0.4-1.9,0.4-3.6-1.3-4.9c-7.4-6-10.2-14.6-13-23.2
			c-3-9.4-3.9-19.2-5.8-28.9c0-5.3,0.1-10.7-0.1-16c0-1.7,0.3-2.1,2.1-2.1c18.3,0.1,36.7,0.1,55,0c1.7,0,2.1,0.3,2.1,2.1
			c-0.2,5-0.1,10-0.1,15c-0.6,3.9-1.2,7.9-1.9,11.8c-2.2,12.7-3.6,26.3-12.5,35.9c-6.4,6.9-5.7,12.8-3.8,20.1c0.4,1.5,0.5,3,0.9,4.4
			c2.2,7.7,1.4,16.3,7,23.1c1.4,1.7,1.3,4.6,0.9,7.2c-0.9,5.8-1,11.4,3.5,16.4c3.7,4.1,2.3,7.5-3,9.6
			C-82.5,1573.5-85.3,1574.2-88,1575z"/>
	</g>
</g>
<path class="st1" d="M-130,1427"/>
</svg>
