<?xml version="1.0" encoding="utf-8"?>
<!-- Generator: Adobe Illustrator 19.1.0, SVG Export Plug-In . SVG Version: 6.00 Build 0)  -->
<svg version="1.1" id="Livello_1" xmlns="http://www.w3.org/2000/svg" xmlns:xlink="http://www.w3.org/1999/xlink" x="0px" y="0px"
	 viewBox="-129 1413 88 176" style="enable-background:new -129 1413 88 176;" xml:space="preserve">
<style type="text/css">
	.st0{fill:none;}
	.st1{fill:#FFFFFF;}
</style>
<g id="Livello_1_1_">
	<path class="st0" d="M-122,1427"/>
</g>
<g id="Livello_2">
	<path class="st1" d="M-74.1,1514.3c-0.6,2-1.5,3.4,1.2,4.1c0.4,1.2-0.4,2.1-0.8,2.1c-0.2,0.9-0.8,2.9,1.2,2.9
		c0,1.7-0.1,2.9-0.3,3.6c0.6,2.8,3.5,12.3,3.5,12.3s0.6,3.2-0.8,3.8c0.8,1.7,2.2,3.7,2.2,3.7s5.4,4.9,3.3,8.3c1.3,1.8,8.2,9,0,14.5
		c0,0-6.2,5.8-20.3,4.6c-14.1,1.2-20.3-4.6-20.3-4.6c-8.2-5.5-1.3-12.7,0-14.5c-2.1-3.4,3.3-8.3,3.3-8.3s1.3-2,2.2-3.7
		c-1.4-0.6-0.8-3.8-0.8-3.8s2.9-9.5,3.5-12.3c-0.2-0.7-0.3-1.9-0.3-3.6c2,0,1.5-2.1,1.2-2.9c-0.4,0-1.1-0.9-0.8-2.1
		c2.8-0.7,1.9-2.1,1.2-4.1c-2.4-4.8-18.4-76.8-18.9-79.5c-0.5-1.1-2.5-2.2-2.8-5.1c7.9-2.9,32.4-2,32.4-2l0,0c0,0,24.5-0.9,32.4,2
		c-0.2,2.9-2.2,4-2.8,5.1C-55.8,1437.6-71.8,1509.6-74.1,1514.3z"/>
</g>
</svg>
